<svg width="30" height="30" viewBox="0 0 30 30" fill="none" xmlns="http://www.w3.org/2000/svg">
<path d="M23 24C23 22.6044 23 21.9067 22.8278 21.3389C22.44 20.0605 21.4395 19.06 20.1611 18.6722C19.5933 18.5 18.8956 18.5 17.5 18.5H12.5C11.1044 18.5 10.4067 18.5 9.83886 18.6722C8.56045 19.06 7.56004 20.0605 7.17224 21.3389C7 21.9067 7 22.6044 7 24M19.5 10.5C19.5 12.9853 17.4853 15 15 15C12.5147 15 10.5 12.9853 10.5 10.5C10.5 8.01472 12.5147 6 15 6C17.4853 6 19.5 8.01472 19.5 10.5Z" stroke="black" stroke-width="2" stroke-linecap="round" stroke-linejoin="round"/>
</svg>
