<svg width="30" height="30" viewBox="0 0 30 30" fill="none" xmlns="http://www.w3.org/2000/svg">
<path d="M11.4 6H7.6C7.03995 6 6.75992 6 6.54601 6.10899C6.35785 6.20487 6.20487 6.35785 6.10899 6.54601C6 6.75992 6 7.03995 6 7.6V11.4C6 11.9601 6 12.2401 6.10899 12.454C6.20487 12.6422 6.35785 12.7951 6.54601 12.891C6.75992 13 7.03995 13 7.6 13H11.4C11.9601 13 12.2401 13 12.454 12.891C12.6422 12.7951 12.7951 12.6422 12.891 12.454C13 12.2401 13 11.9601 13 11.4V7.6C13 7.03995 13 6.75992 12.891 6.54601C12.7951 6.35785 12.6422 6.20487 12.454 6.10899C12.2401 6 11.9601 6 11.4 6Z" stroke="black" stroke-width="2" stroke-linecap="round" stroke-linejoin="round"/>
<path d="M22.4 6H18.6C18.0399 6 17.7599 6 17.546 6.10899C17.3578 6.20487 17.2049 6.35785 17.109 6.54601C17 6.75992 17 7.03995 17 7.6V11.4C17 11.9601 17 12.2401 17.109 12.454C17.2049 12.6422 17.3578 12.7951 17.546 12.891C17.7599 13 18.0399 13 18.6 13H22.4C22.9601 13 23.2401 13 23.454 12.891C23.6422 12.7951 23.7951 12.6422 23.891 12.454C24 12.2401 24 11.9601 24 11.4V7.6C24 7.03995 24 6.75992 23.891 6.54601C23.7951 6.35785 23.6422 6.20487 23.454 6.10899C23.2401 6 22.9601 6 22.4 6Z" stroke="black" stroke-width="2" stroke-linecap="round" stroke-linejoin="round"/>
<path d="M22.4 17H18.6C18.0399 17 17.7599 17 17.546 17.109C17.3578 17.2049 17.2049 17.3578 17.109 17.546C17 17.7599 17 18.0399 17 18.6V22.4C17 22.9601 17 23.2401 17.109 23.454C17.2049 23.6422 17.3578 23.7951 17.546 23.891C17.7599 24 18.0399 24 18.6 24H22.4C22.9601 24 23.2401 24 23.454 23.891C23.6422 23.7951 23.7951 23.6422 23.891 23.454C24 23.2401 24 22.9601 24 22.4V18.6C24 18.0399 24 17.7599 23.891 17.546C23.7951 17.3578 23.6422 17.2049 23.454 17.109C23.2401 17 22.9601 17 22.4 17Z" stroke="black" stroke-width="2" stroke-linecap="round" stroke-linejoin="round"/>
<path d="M11.4 17H7.6C7.03995 17 6.75992 17 6.54601 17.109C6.35785 17.2049 6.20487 17.3578 6.10899 17.546C6 17.7599 6 18.0399 6 18.6V22.4C6 22.9601 6 23.2401 6.10899 23.454C6.20487 23.6422 6.35785 23.7951 6.54601 23.891C6.75992 24 7.03995 24 7.6 24H11.4C11.9601 24 12.2401 24 12.454 23.891C12.6422 23.7951 12.7951 23.6422 12.891 23.454C13 23.2401 13 22.9601 13 22.4V18.6C13 18.0399 13 17.7599 12.891 17.546C12.7951 17.3578 12.6422 17.2049 12.454 17.109C12.2401 17 11.9601 17 11.4 17Z" stroke="black" stroke-width="2" stroke-linecap="round" stroke-linejoin="round"/>
</svg>
