<svg width="102" height="94" viewBox="0 0 102 94" fill="none" xmlns="http://www.w3.org/2000/svg">
  <g filter="url(#filter0_i_3485_6072)">
    <path d="M100.852 58.2798C100.833 58.2798 100.817 58.27 100.808 58.2543C100.5 57.7281 99.9956 57.3584 99.3926 57.2148C97.8608 56.8355 95.7163 57.6962 81.0697 66.7263C84.177 64.5965 87.0947 62.5833 89.5455 60.8035C92.3027 58.8195 94.3012 57.2878 95.658 56.1207C97.0584 54.9099 99.1883 53.101 98.0358 51.1024C97.7149 50.5334 97.1751 50.1396 96.5333 49.9791C94.7243 49.5414 91.1648 51.2628 77.233 60.0158C78.721 58.9654 80.1215 57.9734 81.4053 57.0544C88.714 51.7734 90.5083 50.0228 89.2683 47.8784C88.9474 47.3094 88.393 46.9156 87.7511 46.7551C86.8029 46.5217 85.3587 46.8572 82.3097 48.4181C84.0895 47.1636 85.5191 46.1132 86.5987 45.2379C88.3784 43.8083 90.8147 41.8389 89.5601 39.6798C89.2246 39.0963 88.6702 38.6878 87.9991 38.5273C86.4382 38.148 83.6081 39.2713 75.3949 44.2313C78.8815 41.9264 82.1347 39.7527 84.9502 37.7979C88.6848 35.2158 91.3836 33.2318 93.2071 31.7292C95.0452 30.2121 97.569 28.1259 96.3144 25.9523C95.9789 25.3834 95.4391 24.9749 94.7827 24.8144C93.1342 24.4059 89.8081 25.8064 79.7422 31.8313C81.0989 30.8393 82.2076 29.9786 83.1121 29.2346C84.8919 27.7612 86.6279 24.9165 85.3879 22.7721C85.0523 22.1885 84.498 21.7801 83.8269 21.6196C82.5432 21.3132 80.4133 21.9843 75.2928 24.8874C76.1243 24.3622 76.9705 23.7932 77.8603 23.1805C81.7408 20.4963 84.5563 18.4248 86.4528 16.8493C88.3493 15.2883 93.7615 10.5034 92.4777 8.28597C92.1568 7.73162 91.6316 7.33774 90.9897 7.17727C89.4142 6.78339 86.0589 8.18385 75.4533 14.4714C77.0434 13.3627 78.3563 12.3998 79.4067 11.5683C81.4199 9.9782 84.177 7.80456 82.8641 5.5288C82.5432 4.95986 81.9888 4.56598 81.3323 4.40551C79.4796 3.95327 75.8909 5.6455 62.4406 14.0337C66.146 11.1744 66.9775 9.81773 66.0293 8.15468C65.7084 7.60033 65.1686 7.20644 64.5267 7.04597C62.8053 6.62292 59.6688 8.06715 47.3126 15.7697C49.7051 14.1358 51.9371 12.5749 53.9065 11.1744C56.7658 9.13209 58.8227 7.55656 60.2232 6.37492C61.6674 5.14951 63.8411 3.2968 62.674 1.28363C62.3531 0.729277 61.8279 0.349983 61.2006 0.189513C59.3333 -0.262721 56.2406 1.4441 39.2162 12.3561C38.8002 12.6212 38.3441 12.0139 38.7097 11.6826C38.94 11.4739 39.1627 11.2702 39.3767 11.0723C42.3381 8.35891 43.9719 6.87091 42.907 5.00362C42.6152 4.49304 42.0901 4.11374 41.5211 3.96786C40.2811 3.66151 39.7851 3.83657 30.9884 9.42385C28.6181 10.9234 25.5661 12.8641 23.8934 13.8082C23.344 14.1182 22.6939 14.2137 22.148 14.5297C21.1268 15.1133 20.7767 16.4262 21.3602 17.4474C21.652 17.958 22.1772 18.3373 22.7461 18.4831C23.0755 18.5633 23.4389 19.3119 23.1853 19.537C22.6189 20.0398 22.0854 20.5182 21.5936 20.9631C18.6322 23.6765 16.9837 25.1645 18.0633 27.0318C18.3842 27.5862 18.9094 27.9655 19.5367 28.1259C19.8596 28.2024 20.1651 28.9379 19.8912 29.1253C17.2689 30.9186 14.8226 32.6164 12.6948 34.1363C9.83553 36.1786 7.77859 37.7542 6.37812 38.9358C4.93389 40.1612 2.76025 42.0139 3.9273 44.0271C4.24824 44.5814 4.78801 44.9753 5.42989 45.1358C6.93247 45.5005 9.51459 44.4501 18.3842 39.0379C15.0435 41.6638 14.3141 42.9913 15.2332 44.5814C15.5541 45.1504 16.1085 45.5443 16.7649 45.7047C17.0132 45.7639 17.143 46.1794 16.927 46.3154C14.8354 47.633 12.8332 48.8495 11.0755 50.1104C7.28259 52.8092 6.55318 53.4803 4.52542 55.085C2.51225 56.6751 -0.244925 58.8487 1.06801 61.1245C1.38895 61.6788 1.91413 62.0727 2.55601 62.2332C4.62754 62.7584 8.508 61.8101 28.8002 49.6436C27.604 50.4605 26.4515 51.2483 25.3574 52.0068C21.4769 54.6911 18.6614 56.7626 16.7649 58.3381C14.8685 59.8991 12.2863 62.0435 13.5555 64.2464C13.891 64.8299 14.4454 65.2383 15.1165 65.3988C16.0855 65.6411 17.0071 67.587 16.231 68.2157C16.1647 68.2694 16.0995 68.3224 16.0355 68.3748C14.2558 69.8482 11.8195 71.8614 13.0595 74.0059C13.395 74.5748 13.9348 74.9833 14.5913 75.1437C16.0501 75.5085 18.8219 74.4581 26.4077 70.0233C25.1094 70.9715 24.0299 71.8031 23.1691 72.5325C21.331 74.0496 19.172 77.4049 20.4266 79.5932C20.7621 80.1767 21.3164 80.5851 21.9875 80.7456C22.4436 80.8534 22.9681 81.9599 22.5932 82.2411C22.0131 82.6762 21.4954 83.0773 21.0393 83.4444C19.2595 84.8741 16.8233 86.8435 18.0779 89.0025C18.3988 89.5715 18.9532 89.9654 19.595 90.1258C21.6082 90.6218 25.795 88.5357 42.6298 77.9739C36.8821 82.3357 35.4816 84.6261 36.6195 86.5809C36.9404 87.1498 37.4802 87.5437 38.1221 87.7042C39.9018 88.1418 43.3301 86.4934 56.4886 78.251C53.994 79.9724 51.6745 81.5917 49.6467 83.036C46.8896 85.02 44.891 86.5517 43.5343 87.7188C42.1338 88.9296 40.0039 90.7385 41.1564 92.7371C41.4628 93.2769 41.9734 93.6562 42.5861 93.8021C42.7611 93.8458 42.9508 93.875 43.1696 93.875C45.1828 93.875 49.5884 91.4096 72.1418 77.3174C74.4905 75.844 76.9559 74.3122 79.4213 72.7804C75.9639 75.4209 72.5648 78.0322 69.9827 80.1329C65.1394 84.0571 63.5347 85.6181 64.6726 87.5729C64.979 88.0981 65.4895 88.4774 66.0731 88.6233C67.3277 88.9296 68.1592 88.5065 74.9573 84.1009C76.6275 83.0147 78.9336 81.5263 80.3408 80.7065C80.9008 80.3803 81.5668 80.2702 82.1347 79.9579C83.1559 79.3743 83.506 78.0614 82.9224 77.0402C82.6387 76.5335 82.56 75.79 83.0225 75.4389C83.3799 75.1675 83.7314 74.9003 84.0749 74.6332C88.2034 71.4821 92.4631 68.2435 95.5704 65.7198C100.393 61.8127 102.004 60.2483 100.895 58.3054C100.886 58.2898 100.869 58.2798 100.852 58.2798ZM72.7472 38.4252C72.7501 38.4252 72.7517 38.4286 72.7499 38.4309C71.8179 39.5956 70.915 40.6295 70.0556 41.5471L69.7201 41.9556C67.386 44.5523 65.0373 47.1198 62.6594 49.629C62.0613 50.2271 61.4778 50.5188 60.8797 50.5188C59.9168 50.5188 58.954 49.804 57.962 48.3598C56.9846 46.9156 56.4886 45.6318 56.4886 44.4939C56.4886 43.5749 56.7804 42.7141 57.3785 41.8972C58.8373 39.9862 60.3983 38.1335 62.0321 36.3537L64.2933 33.8883C65.065 32.9763 65.7711 31.9987 66.4191 30.963C66.7077 30.5017 66.6678 29.7749 66.1549 29.5931C66.0764 29.5652 66.0311 29.5696 65.9478 29.5718C65.6945 29.5784 65.5174 29.6053 65.4166 29.6431C65.2199 29.7169 65.007 29.7439 64.8046 29.8001C56.0356 32.2336 48.4643 36.378 42.1046 42.2473C41.0543 43.2102 40.2811 44.421 39.7705 45.8798C39.683 46.157 39.6392 46.405 39.6392 46.6384C39.6392 46.8718 39.7122 47.1344 39.8727 47.4261C40.0331 47.7179 41.3023 48.0534 43.6802 48.4181C48.8882 49.2788 53.8773 50.5918 58.6768 52.3278C61.7404 53.5094 64.2933 55.5226 66.3502 58.3527C67.5319 59.8991 68.13 61.3141 68.13 62.5979C68.13 63.7358 67.6486 64.7715 66.6858 65.676C63.0825 68.7395 58.7352 70.6506 53.6731 71.4238C52.1267 71.7009 50.5512 71.8322 48.9465 71.8322C46.1164 71.8322 43.1696 71.3946 40.1061 70.5339C36.8675 69.571 34.2124 67.6162 32.1555 64.6402C31.755 64.011 31.4107 63.4097 31.1499 62.8228C31.1396 62.7995 31.1343 62.7744 31.1343 62.7489C31.1343 62.7262 31.1301 62.7037 31.122 62.6825C30.9545 62.2396 30.8571 61.7689 30.8571 61.2704C30.8571 60.9056 30.9884 60.6577 31.2656 60.5118C31.5428 60.3805 31.7616 60.3075 31.9513 60.3075C32.4473 60.3075 33.0162 60.5847 33.6289 61.1245C34.2416 61.6788 34.8689 62.0289 35.5108 62.1894C36.1527 62.3499 37.0571 62.4228 38.2534 62.4228C44.2783 62.4228 49.8947 61.4454 55.1027 59.476C55.234 59.4322 55.3361 59.3593 55.4091 59.2718C55.4168 59.2626 55.4244 59.2535 55.4321 59.2446C55.5376 59.1231 55.612 58.9558 55.5697 58.8005C55.5342 58.6704 55.4247 58.5739 55.2912 58.555L46.3352 57.2878C45.6933 57.1127 44.9202 56.9668 44.0011 56.8793C38.5159 55.7852 34.6647 52.3424 32.4327 46.5363C31.3823 44.0271 30.8571 41.7659 30.8571 39.7527C30.8571 36.3683 32.2722 33.6403 35.1023 31.5396C42.5861 25.9231 51.266 22.174 61.1277 20.3067C61.9884 20.1754 62.9074 20.1024 63.8702 20.1024C66.2044 20.1024 68.1738 20.5984 69.7931 21.5758C71.4123 22.5532 72.9587 24.1871 74.4175 26.4775C74.6995 26.8848 74.786 27.3977 75.0223 27.8331C75.1149 28.0036 75.2111 28.1697 75.3074 28.3302C75.5408 28.6949 75.7305 29.0596 75.8909 29.4243C76.0514 29.789 76.1243 30.2266 76.1243 30.7226C76.1243 32.0939 75.7888 33.4215 75.1323 34.7344C74.477 36.0306 73.6762 37.2687 72.7445 38.4195C72.7426 38.4218 72.7443 38.4252 72.7472 38.4252Z" fill="#21B6F6"/>
    <path d="M100.852 58.2798C100.833 58.2798 100.817 58.27 100.808 58.2543C100.5 57.7281 99.9956 57.3584 99.3926 57.2148C97.8608 56.8355 95.7163 57.6962 81.0697 66.7263C84.177 64.5965 87.0947 62.5833 89.5455 60.8035C92.3027 58.8195 94.3012 57.2878 95.658 56.1207C97.0584 54.9099 99.1883 53.101 98.0358 51.1024C97.7149 50.5334 97.1751 50.1396 96.5333 49.9791C94.7243 49.5414 91.1648 51.2628 77.233 60.0158C78.721 58.9654 80.1215 57.9734 81.4053 57.0544C88.714 51.7734 90.5083 50.0228 89.2683 47.8784C88.9474 47.3094 88.393 46.9156 87.7511 46.7551C86.8029 46.5217 85.3587 46.8572 82.3097 48.4181C84.0895 47.1636 85.5191 46.1132 86.5987 45.2379C88.3784 43.8083 90.8147 41.8389 89.5601 39.6798C89.2246 39.0963 88.6702 38.6878 87.9991 38.5273C86.4382 38.148 83.6081 39.2713 75.3949 44.2313C78.8815 41.9264 82.1347 39.7527 84.9502 37.7979C88.6848 35.2158 91.3836 33.2318 93.2071 31.7292C95.0452 30.2121 97.569 28.1259 96.3144 25.9523C95.9789 25.3834 95.4391 24.9749 94.7827 24.8144C93.1342 24.4059 89.8081 25.8064 79.7422 31.8313C81.0989 30.8393 82.2076 29.9786 83.1121 29.2346C84.8919 27.7612 86.6279 24.9165 85.3879 22.7721C85.0523 22.1885 84.498 21.7801 83.8269 21.6196C82.5432 21.3132 80.4133 21.9843 75.2928 24.8874C76.1243 24.3622 76.9705 23.7932 77.8603 23.1805C81.7408 20.4963 84.5563 18.4248 86.4528 16.8493C88.3493 15.2883 93.7615 10.5034 92.4777 8.28597C92.1568 7.73162 91.6316 7.33774 90.9897 7.17727C89.4142 6.78339 86.0589 8.18385 75.4533 14.4714C77.0434 13.3627 78.3563 12.3998 79.4067 11.5683C81.4199 9.9782 84.177 7.80456 82.8641 5.5288C82.5432 4.95986 81.9888 4.56598 81.3323 4.40551C79.4796 3.95327 75.8909 5.6455 62.4406 14.0337C66.146 11.1744 66.9775 9.81773 66.0293 8.15468C65.7084 7.60033 65.1686 7.20644 64.5267 7.04597C62.8053 6.62292 59.6688 8.06715 47.3126 15.7697C49.7051 14.1358 51.9371 12.5749 53.9065 11.1744C56.7658 9.13209 58.8227 7.55656 60.2232 6.37492C61.6674 5.14951 63.8411 3.2968 62.674 1.28363C62.3531 0.729277 61.8279 0.349983 61.2006 0.189513C59.3333 -0.262721 56.2406 1.4441 39.2162 12.3561C38.8002 12.6212 38.3441 12.0139 38.7097 11.6826C38.94 11.4739 39.1627 11.2702 39.3767 11.0723C42.3381 8.35891 43.9719 6.87091 42.907 5.00362C42.6152 4.49304 42.0901 4.11374 41.5211 3.96786C40.2811 3.66151 39.7851 3.83657 30.9884 9.42385C28.6181 10.9234 25.5661 12.8641 23.8934 13.8082C23.344 14.1182 22.6939 14.2137 22.148 14.5297C21.1268 15.1133 20.7767 16.4262 21.3602 17.4474C21.652 17.958 22.1772 18.3373 22.7461 18.4831C23.0755 18.5633 23.4389 19.3119 23.1853 19.537C22.6189 20.0398 22.0854 20.5182 21.5936 20.9631C18.6322 23.6765 16.9837 25.1645 18.0633 27.0318C18.3842 27.5862 18.9094 27.9655 19.5367 28.1259C19.8596 28.2024 20.1651 28.9379 19.8912 29.1253C17.2689 30.9186 14.8226 32.6164 12.6948 34.1363C9.83553 36.1786 7.77859 37.7542 6.37812 38.9358C4.93389 40.1612 2.76025 42.0139 3.9273 44.0271C4.24824 44.5814 4.78801 44.9753 5.42989 45.1358C6.93247 45.5005 9.51459 44.4501 18.3842 39.0379C15.0435 41.6638 14.3141 42.9913 15.2332 44.5814C15.5541 45.1504 16.1085 45.5443 16.7649 45.7047C17.0132 45.7639 17.143 46.1794 16.927 46.3154C14.8354 47.633 12.8332 48.8495 11.0755 50.1104C7.28259 52.8092 6.55318 53.4803 4.52542 55.085C2.51225 56.6751 -0.244925 58.8487 1.06801 61.1245C1.38895 61.6788 1.91413 62.0727 2.55601 62.2332C4.62754 62.7584 8.508 61.8101 28.8002 49.6436C27.604 50.4605 26.4515 51.2483 25.3574 52.0068C21.4769 54.6911 18.6614 56.7626 16.7649 58.3381C14.8685 59.8991 12.2863 62.0435 13.5555 64.2464C13.891 64.8299 14.4454 65.2383 15.1165 65.3988C16.0855 65.6411 17.0071 67.587 16.231 68.2157C16.1647 68.2694 16.0995 68.3224 16.0355 68.3748C14.2558 69.8482 11.8195 71.8614 13.0595 74.0059C13.395 74.5748 13.9348 74.9833 14.5913 75.1437C16.0501 75.5085 18.8219 74.4581 26.4077 70.0233C25.1094 70.9715 24.0299 71.8031 23.1691 72.5325C21.331 74.0496 19.172 77.4049 20.4266 79.5932C20.7621 80.1767 21.3164 80.5851 21.9875 80.7456C22.4436 80.8534 22.9681 81.9599 22.5932 82.2411C22.0131 82.6762 21.4954 83.0773 21.0393 83.4444C19.2595 84.8741 16.8233 86.8435 18.0779 89.0025C18.3988 89.5715 18.9532 89.9654 19.595 90.1258C21.6082 90.6218 25.795 88.5357 42.6298 77.9739C36.8821 82.3357 35.4816 84.6261 36.6195 86.5809C36.9404 87.1498 37.4802 87.5437 38.1221 87.7042C39.9018 88.1418 43.3301 86.4934 56.4886 78.251C53.994 79.9724 51.6745 81.5917 49.6467 83.036C46.8896 85.02 44.891 86.5517 43.5343 87.7188C42.1338 88.9296 40.0039 90.7385 41.1564 92.7371C41.4628 93.2769 41.9734 93.6562 42.5861 93.8021C42.7611 93.8458 42.9508 93.875 43.1696 93.875C45.1828 93.875 49.5884 91.4096 72.1418 77.3174C74.4905 75.844 76.9559 74.3122 79.4213 72.7804C75.9639 75.4209 72.5648 78.0322 69.9827 80.1329C65.1394 84.0571 63.5347 85.6181 64.6726 87.5729C64.979 88.0981 65.4895 88.4774 66.0731 88.6233C67.3277 88.9296 68.1592 88.5065 74.9573 84.1009C76.6275 83.0147 78.9336 81.5263 80.3408 80.7065C80.9008 80.3803 81.5668 80.2702 82.1347 79.9579C83.1559 79.3743 83.506 78.0614 82.9224 77.0402C82.6387 76.5335 82.56 75.79 83.0225 75.4389C83.3799 75.1675 83.7314 74.9003 84.0749 74.6332C88.2034 71.4821 92.4631 68.2435 95.5704 65.7198C100.393 61.8127 102.004 60.2483 100.895 58.3054C100.886 58.2898 100.869 58.2798 100.852 58.2798ZM72.7472 38.4252C72.7501 38.4252 72.7517 38.4286 72.7499 38.4309C71.8179 39.5956 70.915 40.6295 70.0556 41.5471L69.7201 41.9556C67.386 44.5523 65.0373 47.1198 62.6594 49.629C62.0613 50.2271 61.4778 50.5188 60.8797 50.5188C59.9168 50.5188 58.954 49.804 57.962 48.3598C56.9846 46.9156 56.4886 45.6318 56.4886 44.4939C56.4886 43.5749 56.7804 42.7141 57.3785 41.8972C58.8373 39.9862 60.3983 38.1335 62.0321 36.3537L64.2933 33.8883C65.065 32.9763 65.7711 31.9987 66.4191 30.963C66.7077 30.5017 66.6678 29.7749 66.1549 29.5931C66.0764 29.5652 66.0311 29.5696 65.9478 29.5718C65.6945 29.5784 65.5174 29.6053 65.4166 29.6431C65.2199 29.7169 65.007 29.7439 64.8046 29.8001C56.0356 32.2336 48.4643 36.378 42.1046 42.2473C41.0543 43.2102 40.2811 44.421 39.7705 45.8798C39.683 46.157 39.6392 46.405 39.6392 46.6384C39.6392 46.8718 39.7122 47.1344 39.8727 47.4261C40.0331 47.7179 41.3023 48.0534 43.6802 48.4181C48.8882 49.2788 53.8773 50.5918 58.6768 52.3278C61.7404 53.5094 64.2933 55.5226 66.3502 58.3527C67.5319 59.8991 68.13 61.3141 68.13 62.5979C68.13 63.7358 67.6486 64.7715 66.6858 65.676C63.0825 68.7395 58.7352 70.6506 53.6731 71.4238C52.1267 71.7009 50.5512 71.8322 48.9465 71.8322C46.1164 71.8322 43.1696 71.3946 40.1061 70.5339C36.8675 69.571 34.2124 67.6162 32.1555 64.6402C31.755 64.011 31.4107 63.4097 31.1499 62.8228C31.1396 62.7995 31.1343 62.7744 31.1343 62.7489C31.1343 62.7262 31.1301 62.7037 31.122 62.6825C30.9545 62.2396 30.8571 61.7689 30.8571 61.2704C30.8571 60.9056 30.9884 60.6577 31.2656 60.5118C31.5428 60.3805 31.7616 60.3075 31.9513 60.3075C32.4473 60.3075 33.0162 60.5847 33.6289 61.1245C34.2416 61.6788 34.8689 62.0289 35.5108 62.1894C36.1527 62.3499 37.0571 62.4228 38.2534 62.4228C44.2783 62.4228 49.8947 61.4454 55.1027 59.476C55.234 59.4322 55.3361 59.3593 55.4091 59.2718C55.4168 59.2626 55.4244 59.2535 55.4321 59.2446C55.5376 59.1231 55.612 58.9558 55.5697 58.8005C55.5342 58.6704 55.4247 58.5739 55.2912 58.555L46.3352 57.2878C45.6933 57.1127 44.9202 56.9668 44.0011 56.8793C38.5159 55.7852 34.6647 52.3424 32.4327 46.5363C31.3823 44.0271 30.8571 41.7659 30.8571 39.7527C30.8571 36.3683 32.2722 33.6403 35.1023 31.5396C42.5861 25.9231 51.266 22.174 61.1277 20.3067C61.9884 20.1754 62.9074 20.1024 63.8702 20.1024C66.2044 20.1024 68.1738 20.5984 69.7931 21.5758C71.4123 22.5532 72.9587 24.1871 74.4175 26.4775C74.6995 26.8848 74.786 27.3977 75.0223 27.8331C75.1149 28.0036 75.2111 28.1697 75.3074 28.3302C75.5408 28.6949 75.7305 29.0596 75.8909 29.4243C76.0514 29.789 76.1243 30.2266 76.1243 30.7226C76.1243 32.0939 75.7888 33.4215 75.1323 34.7344C74.477 36.0306 73.6762 37.2687 72.7445 38.4195C72.7426 38.4218 72.7443 38.4252 72.7472 38.4252Z" fill="url(#paint0_linear_3485_6072)"/>
    <path d="M100.852 58.2798C100.833 58.2798 100.817 58.27 100.808 58.2543C100.5 57.7281 99.9956 57.3584 99.3926 57.2148C97.8608 56.8355 95.7163 57.6962 81.0697 66.7263C84.177 64.5965 87.0947 62.5833 89.5455 60.8035C92.3027 58.8195 94.3012 57.2878 95.658 56.1207C97.0584 54.9099 99.1883 53.101 98.0358 51.1024C97.7149 50.5334 97.1751 50.1396 96.5333 49.9791C94.7243 49.5414 91.1648 51.2628 77.233 60.0158C78.721 58.9654 80.1215 57.9734 81.4053 57.0544C88.714 51.7734 90.5083 50.0228 89.2683 47.8784C88.9474 47.3094 88.393 46.9156 87.7511 46.7551C86.8029 46.5217 85.3587 46.8572 82.3097 48.4181C84.0895 47.1636 85.5191 46.1132 86.5987 45.2379C88.3784 43.8083 90.8147 41.8389 89.5601 39.6798C89.2246 39.0963 88.6702 38.6878 87.9991 38.5273C86.4382 38.148 83.6081 39.2713 75.3949 44.2313C78.8815 41.9264 82.1347 39.7527 84.9502 37.7979C88.6848 35.2158 91.3836 33.2318 93.2071 31.7292C95.0452 30.2121 97.569 28.1259 96.3144 25.9523C95.9789 25.3834 95.4391 24.9749 94.7827 24.8144C93.1342 24.4059 89.8081 25.8064 79.7422 31.8313C81.0989 30.8393 82.2076 29.9786 83.1121 29.2346C84.8919 27.7612 86.6279 24.9165 85.3879 22.7721C85.0523 22.1885 84.498 21.7801 83.8269 21.6196C82.5432 21.3132 80.4133 21.9843 75.2928 24.8874C76.1243 24.3622 76.9705 23.7932 77.8603 23.1805C81.7408 20.4963 84.5563 18.4248 86.4528 16.8493C88.3493 15.2883 93.7615 10.5034 92.4777 8.28597C92.1568 7.73162 91.6316 7.33774 90.9897 7.17727C89.4142 6.78339 86.0589 8.18385 75.4533 14.4714C77.0434 13.3627 78.3563 12.3998 79.4067 11.5683C81.4199 9.9782 84.177 7.80456 82.8641 5.5288C82.5432 4.95986 81.9888 4.56598 81.3323 4.40551C79.4796 3.95327 75.8909 5.6455 62.4406 14.0337C66.146 11.1744 66.9775 9.81773 66.0293 8.15468C65.7084 7.60033 65.1686 7.20644 64.5267 7.04597C62.8053 6.62292 59.6688 8.06715 47.3126 15.7697C49.7051 14.1358 51.9371 12.5749 53.9065 11.1744C56.7658 9.13209 58.8227 7.55656 60.2232 6.37492C61.6674 5.14951 63.8411 3.2968 62.674 1.28363C62.3531 0.729277 61.8279 0.349983 61.2006 0.189513C59.3333 -0.262721 56.2406 1.4441 39.2162 12.3561C38.8002 12.6212 38.3441 12.0139 38.7097 11.6826C38.94 11.4739 39.1627 11.2702 39.3767 11.0723C42.3381 8.35891 43.9719 6.87091 42.907 5.00362C42.6152 4.49304 42.0901 4.11374 41.5211 3.96786C40.2811 3.66151 39.7851 3.83657 30.9884 9.42385C28.6181 10.9234 25.5661 12.8641 23.8934 13.8082C23.344 14.1182 22.6939 14.2137 22.148 14.5297C21.1268 15.1133 20.7767 16.4262 21.3602 17.4474C21.652 17.958 22.1772 18.3373 22.7461 18.4831C23.0755 18.5633 23.4389 19.3119 23.1853 19.537C22.6189 20.0398 22.0854 20.5182 21.5936 20.9631C18.6322 23.6765 16.9837 25.1645 18.0633 27.0318C18.3842 27.5862 18.9094 27.9655 19.5367 28.1259C19.8596 28.2024 20.1651 28.9379 19.8912 29.1253C17.2689 30.9186 14.8226 32.6164 12.6948 34.1363C9.83553 36.1786 7.77859 37.7542 6.37812 38.9358C4.93389 40.1612 2.76025 42.0139 3.9273 44.0271C4.24824 44.5814 4.78801 44.9753 5.42989 45.1358C6.93247 45.5005 9.51459 44.4501 18.3842 39.0379C15.0435 41.6638 14.3141 42.9913 15.2332 44.5814C15.5541 45.1504 16.1085 45.5443 16.7649 45.7047C17.0132 45.7639 17.143 46.1794 16.927 46.3154C14.8354 47.633 12.8332 48.8495 11.0755 50.1104C7.28259 52.8092 6.55318 53.4803 4.52542 55.085C2.51225 56.6751 -0.244925 58.8487 1.06801 61.1245C1.38895 61.6788 1.91413 62.0727 2.55601 62.2332C4.62754 62.7584 8.508 61.8101 28.8002 49.6436C27.604 50.4605 26.4515 51.2483 25.3574 52.0068C21.4769 54.6911 18.6614 56.7626 16.7649 58.3381C14.8685 59.8991 12.2863 62.0435 13.5555 64.2464C13.891 64.8299 14.4454 65.2383 15.1165 65.3988C16.0855 65.6411 17.0071 67.587 16.231 68.2157C16.1647 68.2694 16.0995 68.3224 16.0355 68.3748C14.2558 69.8482 11.8195 71.8614 13.0595 74.0059C13.395 74.5748 13.9348 74.9833 14.5913 75.1437C16.0501 75.5085 18.8219 74.4581 26.4077 70.0233C25.1094 70.9715 24.0299 71.8031 23.1691 72.5325C21.331 74.0496 19.172 77.4049 20.4266 79.5932C20.7621 80.1767 21.3164 80.5851 21.9875 80.7456C22.4436 80.8534 22.9681 81.9599 22.5932 82.2411C22.0131 82.6762 21.4954 83.0773 21.0393 83.4444C19.2595 84.8741 16.8233 86.8435 18.0779 89.0025C18.3988 89.5715 18.9532 89.9654 19.595 90.1258C21.6082 90.6218 25.795 88.5357 42.6298 77.9739C36.8821 82.3357 35.4816 84.6261 36.6195 86.5809C36.9404 87.1498 37.4802 87.5437 38.1221 87.7042C39.9018 88.1418 43.3301 86.4934 56.4886 78.251C53.994 79.9724 51.6745 81.5917 49.6467 83.036C46.8896 85.02 44.891 86.5517 43.5343 87.7188C42.1338 88.9296 40.0039 90.7385 41.1564 92.7371C41.4628 93.2769 41.9734 93.6562 42.5861 93.8021C42.7611 93.8458 42.9508 93.875 43.1696 93.875C45.1828 93.875 49.5884 91.4096 72.1418 77.3174C74.4905 75.844 76.9559 74.3122 79.4213 72.7804C75.9639 75.4209 72.5648 78.0322 69.9827 80.1329C65.1394 84.0571 63.5347 85.6181 64.6726 87.5729C64.979 88.0981 65.4895 88.4774 66.0731 88.6233C67.3277 88.9296 68.1592 88.5065 74.9573 84.1009C76.6275 83.0147 78.9336 81.5263 80.3408 80.7065C80.9008 80.3803 81.5668 80.2702 82.1347 79.9579C83.1559 79.3743 83.506 78.0614 82.9224 77.0402C82.6387 76.5335 82.56 75.79 83.0225 75.4389C83.3799 75.1675 83.7314 74.9003 84.0749 74.6332C88.2034 71.4821 92.4631 68.2435 95.5704 65.7198C100.393 61.8127 102.004 60.2483 100.895 58.3054C100.886 58.2898 100.869 58.2798 100.852 58.2798ZM72.7472 38.4252C72.7501 38.4252 72.7517 38.4286 72.7499 38.4309C71.8179 39.5956 70.915 40.6295 70.0556 41.5471L69.7201 41.9556C67.386 44.5523 65.0373 47.1198 62.6594 49.629C62.0613 50.2271 61.4778 50.5188 60.8797 50.5188C59.9168 50.5188 58.954 49.804 57.962 48.3598C56.9846 46.9156 56.4886 45.6318 56.4886 44.4939C56.4886 43.5749 56.7804 42.7141 57.3785 41.8972C58.8373 39.9862 60.3983 38.1335 62.0321 36.3537L64.2933 33.8883C65.065 32.9763 65.7711 31.9987 66.4191 30.963C66.7077 30.5017 66.6678 29.7749 66.1549 29.5931C66.0764 29.5652 66.0311 29.5696 65.9478 29.5718C65.6945 29.5784 65.5174 29.6053 65.4166 29.6431C65.2199 29.7169 65.007 29.7439 64.8046 29.8001C56.0356 32.2336 48.4643 36.378 42.1046 42.2473C41.0543 43.2102 40.2811 44.421 39.7705 45.8798C39.683 46.157 39.6392 46.405 39.6392 46.6384C39.6392 46.8718 39.7122 47.1344 39.8727 47.4261C40.0331 47.7179 41.3023 48.0534 43.6802 48.4181C48.8882 49.2788 53.8773 50.5918 58.6768 52.3278C61.7404 53.5094 64.2933 55.5226 66.3502 58.3527C67.5319 59.8991 68.13 61.3141 68.13 62.5979C68.13 63.7358 67.6486 64.7715 66.6858 65.676C63.0825 68.7395 58.7352 70.6506 53.6731 71.4238C52.1267 71.7009 50.5512 71.8322 48.9465 71.8322C46.1164 71.8322 43.1696 71.3946 40.1061 70.5339C36.8675 69.571 34.2124 67.6162 32.1555 64.6402C31.755 64.011 31.4107 63.4097 31.1499 62.8228C31.1396 62.7995 31.1343 62.7744 31.1343 62.7489C31.1343 62.7262 31.1301 62.7037 31.122 62.6825C30.9545 62.2396 30.8571 61.7689 30.8571 61.2704C30.8571 60.9056 30.9884 60.6577 31.2656 60.5118C31.5428 60.3805 31.7616 60.3075 31.9513 60.3075C32.4473 60.3075 33.0162 60.5847 33.6289 61.1245C34.2416 61.6788 34.8689 62.0289 35.5108 62.1894C36.1527 62.3499 37.0571 62.4228 38.2534 62.4228C44.2783 62.4228 49.8947 61.4454 55.1027 59.476C55.234 59.4322 55.3361 59.3593 55.4091 59.2718C55.4168 59.2626 55.4244 59.2535 55.4321 59.2446C55.5376 59.1231 55.612 58.9558 55.5697 58.8005C55.5342 58.6704 55.4247 58.5739 55.2912 58.555L46.3352 57.2878C45.6933 57.1127 44.9202 56.9668 44.0011 56.8793C38.5159 55.7852 34.6647 52.3424 32.4327 46.5363C31.3823 44.0271 30.8571 41.7659 30.8571 39.7527C30.8571 36.3683 32.2722 33.6403 35.1023 31.5396C42.5861 25.9231 51.266 22.174 61.1277 20.3067C61.9884 20.1754 62.9074 20.1024 63.8702 20.1024C66.2044 20.1024 68.1738 20.5984 69.7931 21.5758C71.4123 22.5532 72.9587 24.1871 74.4175 26.4775C74.6995 26.8848 74.786 27.3977 75.0223 27.8331C75.1149 28.0036 75.2111 28.1697 75.3074 28.3302C75.5408 28.6949 75.7305 29.0596 75.8909 29.4243C76.0514 29.789 76.1243 30.2266 76.1243 30.7226C76.1243 32.0939 75.7888 33.4215 75.1323 34.7344C74.477 36.0306 73.6762 37.2687 72.7445 38.4195C72.7426 38.4218 72.7443 38.4252 72.7472 38.4252Z" fill="url(#paint1_linear_3485_6072)"/>
    <path d="M100.852 58.2798C100.833 58.2798 100.817 58.27 100.808 58.2543C100.5 57.7281 99.9956 57.3584 99.3926 57.2148C97.8608 56.8355 95.7163 57.6962 81.0697 66.7263C84.177 64.5965 87.0947 62.5833 89.5455 60.8035C92.3027 58.8195 94.3012 57.2878 95.658 56.1207C97.0584 54.9099 99.1883 53.101 98.0358 51.1024C97.7149 50.5334 97.1751 50.1396 96.5333 49.9791C94.7243 49.5414 91.1648 51.2628 77.233 60.0158C78.721 58.9654 80.1215 57.9734 81.4053 57.0544C88.714 51.7734 90.5083 50.0228 89.2683 47.8784C88.9474 47.3094 88.393 46.9156 87.7511 46.7551C86.8029 46.5217 85.3587 46.8572 82.3097 48.4181C84.0895 47.1636 85.5191 46.1132 86.5987 45.2379C88.3784 43.8083 90.8147 41.8389 89.5601 39.6798C89.2246 39.0963 88.6702 38.6878 87.9991 38.5273C86.4382 38.148 83.6081 39.2713 75.3949 44.2313C78.8815 41.9264 82.1347 39.7527 84.9502 37.7979C88.6848 35.2158 91.3836 33.2318 93.2071 31.7292C95.0452 30.2121 97.569 28.1259 96.3144 25.9523C95.9789 25.3834 95.4391 24.9749 94.7827 24.8144C93.1342 24.4059 89.8081 25.8064 79.7422 31.8313C81.0989 30.8393 82.2076 29.9786 83.1121 29.2346C84.8919 27.7612 86.6279 24.9165 85.3879 22.7721C85.0523 22.1885 84.498 21.7801 83.8269 21.6196C82.5432 21.3132 80.4133 21.9843 75.2928 24.8874C76.1243 24.3622 76.9705 23.7932 77.8603 23.1805C81.7408 20.4963 84.5563 18.4248 86.4528 16.8493C88.3493 15.2883 93.7615 10.5034 92.4777 8.28597C92.1568 7.73162 91.6316 7.33774 90.9897 7.17727C89.4142 6.78339 86.0589 8.18385 75.4533 14.4714C77.0434 13.3627 78.3563 12.3998 79.4067 11.5683C81.4199 9.9782 84.177 7.80456 82.8641 5.5288C82.5432 4.95986 81.9888 4.56598 81.3323 4.40551C79.4796 3.95327 75.8909 5.6455 62.4406 14.0337C66.146 11.1744 66.9775 9.81773 66.0293 8.15468C65.7084 7.60033 65.1686 7.20644 64.5267 7.04597C62.8053 6.62292 59.6688 8.06715 47.3126 15.7697C49.7051 14.1358 51.9371 12.5749 53.9065 11.1744C56.7658 9.13209 58.8227 7.55656 60.2232 6.37492C61.6674 5.14951 63.8411 3.2968 62.674 1.28363C62.3531 0.729277 61.8279 0.349983 61.2006 0.189513C59.3333 -0.262721 56.2406 1.4441 39.2162 12.3561C38.8002 12.6212 38.3441 12.0139 38.7097 11.6826C38.94 11.4739 39.1627 11.2702 39.3767 11.0723C42.3381 8.35891 43.9719 6.87091 42.907 5.00362C42.6152 4.49304 42.0901 4.11374 41.5211 3.96786C40.2811 3.66151 39.7851 3.83657 30.9884 9.42385C28.6181 10.9234 25.5661 12.8641 23.8934 13.8082C23.344 14.1182 22.6939 14.2137 22.148 14.5297C21.1268 15.1133 20.7767 16.4262 21.3602 17.4474C21.652 17.958 22.1772 18.3373 22.7461 18.4831C23.0755 18.5633 23.4389 19.3119 23.1853 19.537C22.6189 20.0398 22.0854 20.5182 21.5936 20.9631C18.6322 23.6765 16.9837 25.1645 18.0633 27.0318C18.3842 27.5862 18.9094 27.9655 19.5367 28.1259C19.8596 28.2024 20.1651 28.9379 19.8912 29.1253C17.2689 30.9186 14.8226 32.6164 12.6948 34.1363C9.83553 36.1786 7.77859 37.7542 6.37812 38.9358C4.93389 40.1612 2.76025 42.0139 3.9273 44.0271C4.24824 44.5814 4.78801 44.9753 5.42989 45.1358C6.93247 45.5005 9.51459 44.4501 18.3842 39.0379C15.0435 41.6638 14.3141 42.9913 15.2332 44.5814C15.5541 45.1504 16.1085 45.5443 16.7649 45.7047C17.0132 45.7639 17.143 46.1794 16.927 46.3154C14.8354 47.633 12.8332 48.8495 11.0755 50.1104C7.28259 52.8092 6.55318 53.4803 4.52542 55.085C2.51225 56.6751 -0.244925 58.8487 1.06801 61.1245C1.38895 61.6788 1.91413 62.0727 2.55601 62.2332C4.62754 62.7584 8.508 61.8101 28.8002 49.6436C27.604 50.4605 26.4515 51.2483 25.3574 52.0068C21.4769 54.6911 18.6614 56.7626 16.7649 58.3381C14.8685 59.8991 12.2863 62.0435 13.5555 64.2464C13.891 64.8299 14.4454 65.2383 15.1165 65.3988C16.0855 65.6411 17.0071 67.587 16.231 68.2157C16.1647 68.2694 16.0995 68.3224 16.0355 68.3748C14.2558 69.8482 11.8195 71.8614 13.0595 74.0059C13.395 74.5748 13.9348 74.9833 14.5913 75.1437C16.0501 75.5085 18.8219 74.4581 26.4077 70.0233C25.1094 70.9715 24.0299 71.8031 23.1691 72.5325C21.331 74.0496 19.172 77.4049 20.4266 79.5932C20.7621 80.1767 21.3164 80.5851 21.9875 80.7456C22.4436 80.8534 22.9681 81.9599 22.5932 82.2411C22.0131 82.6762 21.4954 83.0773 21.0393 83.4444C19.2595 84.8741 16.8233 86.8435 18.0779 89.0025C18.3988 89.5715 18.9532 89.9654 19.595 90.1258C21.6082 90.6218 25.795 88.5357 42.6298 77.9739C36.8821 82.3357 35.4816 84.6261 36.6195 86.5809C36.9404 87.1498 37.4802 87.5437 38.1221 87.7042C39.9018 88.1418 43.3301 86.4934 56.4886 78.251C53.994 79.9724 51.6745 81.5917 49.6467 83.036C46.8896 85.02 44.891 86.5517 43.5343 87.7188C42.1338 88.9296 40.0039 90.7385 41.1564 92.7371C41.4628 93.2769 41.9734 93.6562 42.5861 93.8021C42.7611 93.8458 42.9508 93.875 43.1696 93.875C45.1828 93.875 49.5884 91.4096 72.1418 77.3174C74.4905 75.844 76.9559 74.3122 79.4213 72.7804C75.9639 75.4209 72.5648 78.0322 69.9827 80.1329C65.1394 84.0571 63.5347 85.6181 64.6726 87.5729C64.979 88.0981 65.4895 88.4774 66.0731 88.6233C67.3277 88.9296 68.1592 88.5065 74.9573 84.1009C76.6275 83.0147 78.9336 81.5263 80.3408 80.7065C80.9008 80.3803 81.5668 80.2702 82.1347 79.9579C83.1559 79.3743 83.506 78.0614 82.9224 77.0402C82.6387 76.5335 82.56 75.79 83.0225 75.4389C83.3799 75.1675 83.7314 74.9003 84.0749 74.6332C88.2034 71.4821 92.4631 68.2435 95.5704 65.7198C100.393 61.8127 102.004 60.2483 100.895 58.3054C100.886 58.2898 100.869 58.2798 100.852 58.2798ZM72.7472 38.4252C72.7501 38.4252 72.7517 38.4286 72.7499 38.4309C71.8179 39.5956 70.915 40.6295 70.0556 41.5471L69.7201 41.9556C67.386 44.5523 65.0373 47.1198 62.6594 49.629C62.0613 50.2271 61.4778 50.5188 60.8797 50.5188C59.9168 50.5188 58.954 49.804 57.962 48.3598C56.9846 46.9156 56.4886 45.6318 56.4886 44.4939C56.4886 43.5749 56.7804 42.7141 57.3785 41.8972C58.8373 39.9862 60.3983 38.1335 62.0321 36.3537L64.2933 33.8883C65.065 32.9763 65.7711 31.9987 66.4191 30.963C66.7077 30.5017 66.6678 29.7749 66.1549 29.5931C66.0764 29.5652 66.0311 29.5696 65.9478 29.5718C65.6945 29.5784 65.5174 29.6053 65.4166 29.6431C65.2199 29.7169 65.007 29.7439 64.8046 29.8001C56.0356 32.2336 48.4643 36.378 42.1046 42.2473C41.0543 43.2102 40.2811 44.421 39.7705 45.8798C39.683 46.157 39.6392 46.405 39.6392 46.6384C39.6392 46.8718 39.7122 47.1344 39.8727 47.4261C40.0331 47.7179 41.3023 48.0534 43.6802 48.4181C48.8882 49.2788 53.8773 50.5918 58.6768 52.3278C61.7404 53.5094 64.2933 55.5226 66.3502 58.3527C67.5319 59.8991 68.13 61.3141 68.13 62.5979C68.13 63.7358 67.6486 64.7715 66.6858 65.676C63.0825 68.7395 58.7352 70.6506 53.6731 71.4238C52.1267 71.7009 50.5512 71.8322 48.9465 71.8322C46.1164 71.8322 43.1696 71.3946 40.1061 70.5339C36.8675 69.571 34.2124 67.6162 32.1555 64.6402C31.755 64.011 31.4107 63.4097 31.1499 62.8228C31.1396 62.7995 31.1343 62.7744 31.1343 62.7489C31.1343 62.7262 31.1301 62.7037 31.122 62.6825C30.9545 62.2396 30.8571 61.7689 30.8571 61.2704C30.8571 60.9056 30.9884 60.6577 31.2656 60.5118C31.5428 60.3805 31.7616 60.3075 31.9513 60.3075C32.4473 60.3075 33.0162 60.5847 33.6289 61.1245C34.2416 61.6788 34.8689 62.0289 35.5108 62.1894C36.1527 62.3499 37.0571 62.4228 38.2534 62.4228C44.2783 62.4228 49.8947 61.4454 55.1027 59.476C55.234 59.4322 55.3361 59.3593 55.4091 59.2718C55.4168 59.2626 55.4244 59.2535 55.4321 59.2446C55.5376 59.1231 55.612 58.9558 55.5697 58.8005C55.5342 58.6704 55.4247 58.5739 55.2912 58.555L46.3352 57.2878C45.6933 57.1127 44.9202 56.9668 44.0011 56.8793C38.5159 55.7852 34.6647 52.3424 32.4327 46.5363C31.3823 44.0271 30.8571 41.7659 30.8571 39.7527C30.8571 36.3683 32.2722 33.6403 35.1023 31.5396C42.5861 25.9231 51.266 22.174 61.1277 20.3067C61.9884 20.1754 62.9074 20.1024 63.8702 20.1024C66.2044 20.1024 68.1738 20.5984 69.7931 21.5758C71.4123 22.5532 72.9587 24.1871 74.4175 26.4775C74.6995 26.8848 74.786 27.3977 75.0223 27.8331C75.1149 28.0036 75.2111 28.1697 75.3074 28.3302C75.5408 28.6949 75.7305 29.0596 75.8909 29.4243C76.0514 29.789 76.1243 30.2266 76.1243 30.7226C76.1243 32.0939 75.7888 33.4215 75.1323 34.7344C74.477 36.0306 73.6762 37.2687 72.7445 38.4195C72.7426 38.4218 72.7443 38.4252 72.7472 38.4252Z" fill="url(#paint2_linear_3485_6072)"/>
    <path d="M100.852 58.2798C100.833 58.2798 100.817 58.27 100.808 58.2543C100.5 57.7281 99.9956 57.3584 99.3926 57.2148C97.8608 56.8355 95.7163 57.6962 81.0697 66.7263C84.177 64.5965 87.0947 62.5833 89.5455 60.8035C92.3027 58.8195 94.3012 57.2878 95.658 56.1207C97.0584 54.9099 99.1883 53.101 98.0358 51.1024C97.7149 50.5334 97.1751 50.1396 96.5333 49.9791C94.7243 49.5414 91.1648 51.2628 77.233 60.0158C78.721 58.9654 80.1215 57.9734 81.4053 57.0544C88.714 51.7734 90.5083 50.0228 89.2683 47.8784C88.9474 47.3094 88.393 46.9156 87.7511 46.7551C86.8029 46.5217 85.3587 46.8572 82.3097 48.4181C84.0895 47.1636 85.5191 46.1132 86.5987 45.2379C88.3784 43.8083 90.8147 41.8389 89.5601 39.6798C89.2246 39.0963 88.6702 38.6878 87.9991 38.5273C86.4382 38.148 83.6081 39.2713 75.3949 44.2313C78.8815 41.9264 82.1347 39.7527 84.9502 37.7979C88.6848 35.2158 91.3836 33.2318 93.2071 31.7292C95.0452 30.2121 97.569 28.1259 96.3144 25.9523C95.9789 25.3834 95.4391 24.9749 94.7827 24.8144C93.1342 24.4059 89.8081 25.8064 79.7422 31.8313C81.0989 30.8393 82.2076 29.9786 83.1121 29.2346C84.8919 27.7612 86.6279 24.9165 85.3879 22.7721C85.0523 22.1885 84.498 21.7801 83.8269 21.6196C82.5432 21.3132 80.4133 21.9843 75.2928 24.8874C76.1243 24.3622 76.9705 23.7932 77.8603 23.1805C81.7408 20.4963 84.5563 18.4248 86.4528 16.8493C88.3493 15.2883 93.7615 10.5034 92.4777 8.28597C92.1568 7.73162 91.6316 7.33774 90.9897 7.17727C89.4142 6.78339 86.0589 8.18385 75.4533 14.4714C77.0434 13.3627 78.3563 12.3998 79.4067 11.5683C81.4199 9.9782 84.177 7.80456 82.8641 5.5288C82.5432 4.95986 81.9888 4.56598 81.3323 4.40551C79.4796 3.95327 75.8909 5.6455 62.4406 14.0337C66.146 11.1744 66.9775 9.81773 66.0293 8.15468C65.7084 7.60033 65.1686 7.20644 64.5267 7.04597C62.8053 6.62292 59.6688 8.06715 47.3126 15.7697C49.7051 14.1358 51.9371 12.5749 53.9065 11.1744C56.7658 9.13209 58.8227 7.55656 60.2232 6.37492C61.6674 5.14951 63.8411 3.2968 62.674 1.28363C62.3531 0.729277 61.8279 0.349983 61.2006 0.189513C59.3333 -0.262721 56.2406 1.4441 39.2162 12.3561C38.8002 12.6212 38.3441 12.0139 38.7097 11.6826C38.94 11.4739 39.1627 11.2702 39.3767 11.0723C42.3381 8.35891 43.9719 6.87091 42.907 5.00362C42.6152 4.49304 42.0901 4.11374 41.5211 3.96786C40.2811 3.66151 39.7851 3.83657 30.9884 9.42385C28.6181 10.9234 25.5661 12.8641 23.8934 13.8082C23.344 14.1182 22.6939 14.2137 22.148 14.5297C21.1268 15.1133 20.7767 16.4262 21.3602 17.4474C21.652 17.958 22.1772 18.3373 22.7461 18.4831C23.0755 18.5633 23.4389 19.3119 23.1853 19.537C22.6189 20.0398 22.0854 20.5182 21.5936 20.9631C18.6322 23.6765 16.9837 25.1645 18.0633 27.0318C18.3842 27.5862 18.9094 27.9655 19.5367 28.1259C19.8596 28.2024 20.1651 28.9379 19.8912 29.1253C17.2689 30.9186 14.8226 32.6164 12.6948 34.1363C9.83553 36.1786 7.77859 37.7542 6.37812 38.9358C4.93389 40.1612 2.76025 42.0139 3.9273 44.0271C4.24824 44.5814 4.78801 44.9753 5.42989 45.1358C6.93247 45.5005 9.51459 44.4501 18.3842 39.0379C15.0435 41.6638 14.3141 42.9913 15.2332 44.5814C15.5541 45.1504 16.1085 45.5443 16.7649 45.7047C17.0132 45.7639 17.143 46.1794 16.927 46.3154C14.8354 47.633 12.8332 48.8495 11.0755 50.1104C7.28259 52.8092 6.55318 53.4803 4.52542 55.085C2.51225 56.6751 -0.244925 58.8487 1.06801 61.1245C1.38895 61.6788 1.91413 62.0727 2.55601 62.2332C4.62754 62.7584 8.508 61.8101 28.8002 49.6436C27.604 50.4605 26.4515 51.2483 25.3574 52.0068C21.4769 54.6911 18.6614 56.7626 16.7649 58.3381C14.8685 59.8991 12.2863 62.0435 13.5555 64.2464C13.891 64.8299 14.4454 65.2383 15.1165 65.3988C16.0855 65.6411 17.0071 67.587 16.231 68.2157C16.1647 68.2694 16.0995 68.3224 16.0355 68.3748C14.2558 69.8482 11.8195 71.8614 13.0595 74.0059C13.395 74.5748 13.9348 74.9833 14.5913 75.1437C16.0501 75.5085 18.8219 74.4581 26.4077 70.0233C25.1094 70.9715 24.0299 71.8031 23.1691 72.5325C21.331 74.0496 19.172 77.4049 20.4266 79.5932C20.7621 80.1767 21.3164 80.5851 21.9875 80.7456C22.4436 80.8534 22.9681 81.9599 22.5932 82.2411C22.0131 82.6762 21.4954 83.0773 21.0393 83.4444C19.2595 84.8741 16.8233 86.8435 18.0779 89.0025C18.3988 89.5715 18.9532 89.9654 19.595 90.1258C21.6082 90.6218 25.795 88.5357 42.6298 77.9739C36.8821 82.3357 35.4816 84.6261 36.6195 86.5809C36.9404 87.1498 37.4802 87.5437 38.1221 87.7042C39.9018 88.1418 43.3301 86.4934 56.4886 78.251C53.994 79.9724 51.6745 81.5917 49.6467 83.036C46.8896 85.02 44.891 86.5517 43.5343 87.7188C42.1338 88.9296 40.0039 90.7385 41.1564 92.7371C41.4628 93.2769 41.9734 93.6562 42.5861 93.8021C42.7611 93.8458 42.9508 93.875 43.1696 93.875C45.1828 93.875 49.5884 91.4096 72.1418 77.3174C74.4905 75.844 76.9559 74.3122 79.4213 72.7804C75.9639 75.4209 72.5648 78.0322 69.9827 80.1329C65.1394 84.0571 63.5347 85.6181 64.6726 87.5729C64.979 88.0981 65.4895 88.4774 66.0731 88.6233C67.3277 88.9296 68.1592 88.5065 74.9573 84.1009C76.6275 83.0147 78.9336 81.5263 80.3408 80.7065C80.9008 80.3803 81.5668 80.2702 82.1347 79.9579C83.1559 79.3743 83.506 78.0614 82.9224 77.0402C82.6387 76.5335 82.56 75.79 83.0225 75.4389C83.3799 75.1675 83.7314 74.9003 84.0749 74.6332C88.2034 71.4821 92.4631 68.2435 95.5704 65.7198C100.393 61.8127 102.004 60.2483 100.895 58.3054C100.886 58.2898 100.869 58.2798 100.852 58.2798ZM72.7472 38.4252C72.7501 38.4252 72.7517 38.4286 72.7499 38.4309C71.8179 39.5956 70.915 40.6295 70.0556 41.5471L69.7201 41.9556C67.386 44.5523 65.0373 47.1198 62.6594 49.629C62.0613 50.2271 61.4778 50.5188 60.8797 50.5188C59.9168 50.5188 58.954 49.804 57.962 48.3598C56.9846 46.9156 56.4886 45.6318 56.4886 44.4939C56.4886 43.5749 56.7804 42.7141 57.3785 41.8972C58.8373 39.9862 60.3983 38.1335 62.0321 36.3537L64.2933 33.8883C65.065 32.9763 65.7711 31.9987 66.4191 30.963C66.7077 30.5017 66.6678 29.7749 66.1549 29.5931C66.0764 29.5652 66.0311 29.5696 65.9478 29.5718C65.6945 29.5784 65.5174 29.6053 65.4166 29.6431C65.2199 29.7169 65.007 29.7439 64.8046 29.8001C56.0356 32.2336 48.4643 36.378 42.1046 42.2473C41.0543 43.2102 40.2811 44.421 39.7705 45.8798C39.683 46.157 39.6392 46.405 39.6392 46.6384C39.6392 46.8718 39.7122 47.1344 39.8727 47.4261C40.0331 47.7179 41.3023 48.0534 43.6802 48.4181C48.8882 49.2788 53.8773 50.5918 58.6768 52.3278C61.7404 53.5094 64.2933 55.5226 66.3502 58.3527C67.5319 59.8991 68.13 61.3141 68.13 62.5979C68.13 63.7358 67.6486 64.7715 66.6858 65.676C63.0825 68.7395 58.7352 70.6506 53.6731 71.4238C52.1267 71.7009 50.5512 71.8322 48.9465 71.8322C46.1164 71.8322 43.1696 71.3946 40.1061 70.5339C36.8675 69.571 34.2124 67.6162 32.1555 64.6402C31.755 64.011 31.4107 63.4097 31.1499 62.8228C31.1396 62.7995 31.1343 62.7744 31.1343 62.7489C31.1343 62.7262 31.1301 62.7037 31.122 62.6825C30.9545 62.2396 30.8571 61.7689 30.8571 61.2704C30.8571 60.9056 30.9884 60.6577 31.2656 60.5118C31.5428 60.3805 31.7616 60.3075 31.9513 60.3075C32.4473 60.3075 33.0162 60.5847 33.6289 61.1245C34.2416 61.6788 34.8689 62.0289 35.5108 62.1894C36.1527 62.3499 37.0571 62.4228 38.2534 62.4228C44.2783 62.4228 49.8947 61.4454 55.1027 59.476C55.234 59.4322 55.3361 59.3593 55.4091 59.2718C55.4168 59.2626 55.4244 59.2535 55.4321 59.2446C55.5376 59.1231 55.612 58.9558 55.5697 58.8005C55.5342 58.6704 55.4247 58.5739 55.2912 58.555L46.3352 57.2878C45.6933 57.1127 44.9202 56.9668 44.0011 56.8793C38.5159 55.7852 34.6647 52.3424 32.4327 46.5363C31.3823 44.0271 30.8571 41.7659 30.8571 39.7527C30.8571 36.3683 32.2722 33.6403 35.1023 31.5396C42.5861 25.9231 51.266 22.174 61.1277 20.3067C61.9884 20.1754 62.9074 20.1024 63.8702 20.1024C66.2044 20.1024 68.1738 20.5984 69.7931 21.5758C71.4123 22.5532 72.9587 24.1871 74.4175 26.4775C74.6995 26.8848 74.786 27.3977 75.0223 27.8331C75.1149 28.0036 75.2111 28.1697 75.3074 28.3302C75.5408 28.6949 75.7305 29.0596 75.8909 29.4243C76.0514 29.789 76.1243 30.2266 76.1243 30.7226C76.1243 32.0939 75.7888 33.4215 75.1323 34.7344C74.477 36.0306 73.6762 37.2687 72.7445 38.4195C72.7426 38.4218 72.7443 38.4252 72.7472 38.4252Z" fill="url(#paint3_linear_3485_6072)"/>
  </g>
  <defs>
    <filter id="filter0_i_3485_6072" x="0.726562" y="0.125" width="100.504" height="94.6875" filterUnits="userSpaceOnUse" color-interpolation-filters="sRGB">
      <feFlood flood-opacity="0" result="BackgroundImageFix"/>
      <feBlend mode="normal" in="SourceGraphic" in2="BackgroundImageFix" result="shape"/>
      <feColorMatrix in="SourceAlpha" type="matrix" values="0 0 0 0 0 0 0 0 0 0 0 0 0 0 0 0 0 0 127 0" result="hardAlpha"/>
      <feOffset dy="0.9375"/>
      <feGaussianBlur stdDeviation="0.46875"/>
      <feComposite in2="hardAlpha" operator="arithmetic" k2="-1" k3="1"/>
      <feColorMatrix type="matrix" values="0 0 0 0 0 0 0 0 0 0 0 0 0 0 0 0 0 0 0.4 0"/>
      <feBlend mode="normal" in2="shape" result="effect1_innerShadow_3485_6072"/>
    </filter>
    <linearGradient id="paint0_linear_3485_6072" x1="85.1497" y1="23.2409" x2="78.5692" y2="44.0443" gradientUnits="userSpaceOnUse">
      <stop stop-color="#2DCBFE"/>
      <stop offset="1" stop-color="white" stop-opacity="0"/>
    </linearGradient>
    <linearGradient id="paint1_linear_3485_6072" x1="24.8475" y1="78.0154" x2="36.9079" y2="51.8844" gradientUnits="userSpaceOnUse">
      <stop stop-color="#FD53D4"/>
      <stop offset="1" stop-color="white" stop-opacity="0"/>
    </linearGradient>
    <linearGradient id="paint2_linear_3485_6072" x1="42.4356" y1="31.2812" x2="59.5213" y2="47.3618" gradientUnits="userSpaceOnUse">
      <stop stop-color="#70FA4C"/>
      <stop offset="1" stop-color="white" stop-opacity="0"/>
    </linearGradient>
    <linearGradient id="paint3_linear_3485_6072" x1="75.0993" y1="67.965" x2="53.9935" y2="50.8794" gradientUnits="userSpaceOnUse">
      <stop stop-color="#5C5CE5"/>
      <stop offset="1" stop-color="white" stop-opacity="0"/>
    </linearGradient>
  </defs>
</svg>
