<svg width="30" height="30" viewBox="0 0 30 30" fill="none" xmlns="http://www.w3.org/2000/svg">
<path d="M23.6754 14.9358C23.6754 13.5399 24.1719 12.2176 25.0231 11.2101C24.6684 10.2025 24.1618 9.25799 23.5436 8.3974C22.1554 8.76473 20.6861 8.55483 19.4397 7.80968C18.1224 7.02256 17.18 5.70019 16.8355 4.15742C15.6499 3.94753 14.4339 3.94753 13.2382 4.15742C12.8126 5.4588 11.9412 6.55028 10.7962 7.23246C9.63084 7.93562 8.25274 8.15602 6.9253 7.87265C6.19571 8.76473 5.59785 9.78274 5.17226 10.8637C6.10451 11.9132 6.63143 13.2881 6.6213 14.7154C6.6213 16.2267 6.04371 17.675 5 18.7455C5.43572 20.0154 6.09438 21.1803 6.93543 22.2088C8.3338 21.8205 9.83351 22.0304 11.09 22.7755C12.2655 23.4787 13.1572 24.6122 13.5726 25.9555C14.6873 26.113 15.8222 26.092 16.9368 25.8821C17.3118 24.4233 18.2339 23.1744 19.4904 22.4187C20.6861 21.7051 22.0946 21.4847 23.4322 21.7995C24.1314 20.8655 24.6785 19.8369 25.0535 18.7245C24.1516 17.6855 23.6551 16.3316 23.6551 14.9358H23.6754ZM15.2547 19.1968C13.1572 19.1968 11.4548 17.4336 11.4548 15.2611C11.4548 13.0887 13.1572 11.3255 15.2547 11.3255C17.3523 11.3255 19.0547 13.0887 19.0547 15.2611C19.0547 17.4336 17.3523 19.1968 15.2547 19.1968Z" stroke="black" stroke-width="2" stroke-miterlimit="10"/>
</svg>
