<svg width="26" height="26" viewBox="0 0 26 26" fill="none" xmlns="http://www.w3.org/2000/svg">
<path d="M15.3739 10.1071C16.508 10.1071 17.4275 9.18773 17.4275 8.05357C17.4275 6.91941 16.508 6 15.3739 6C14.2397 6 13.3203 6.91941 13.3203 8.05357C13.3203 9.18773 14.2397 10.1071 15.3739 10.1071Z" stroke="white" stroke-width="1.5" stroke-miterlimit="10" stroke-linecap="round"/>
<path d="M15.3739 20.5837C16.508 20.5837 17.4275 19.6643 17.4275 18.5301C17.4275 17.396 16.508 16.4766 15.3739 16.4766C14.2397 16.4766 13.3203 17.396 13.3203 18.5301C13.3203 19.6643 14.2397 20.5837 15.3739 20.5837Z" stroke="white" stroke-width="1.5" stroke-miterlimit="10" stroke-linecap="round"/>
<path d="M7.05357 15.3415C8.18773 15.3415 9.10714 14.4221 9.10714 13.2879C9.10714 12.1538 8.18773 11.2344 7.05357 11.2344C5.91941 11.2344 5 12.1538 5 13.2879C5 14.4221 5.91941 15.3415 7.05357 15.3415Z" stroke="white" stroke-width="1.5" stroke-miterlimit="10" stroke-linecap="round"/>
<path d="M8.79688 14.3828L13.6433 17.4289" stroke="white" stroke-width="1.5" stroke-miterlimit="10" stroke-linecap="round"/>
<path d="M13.6433 9.14844L8.79688 12.1946" stroke="white" stroke-width="1.5" stroke-miterlimit="10" stroke-linecap="round"/>
</svg>
