<svg width="74" height="74" viewBox="0 0 74 74" fill="none" xmlns="http://www.w3.org/2000/svg">
<path d="M73.5 37C73.5 57.1584 57.1584 73.5 37 73.5C16.8416 73.5 0.5 57.1584 0.5 37C0.5 16.8416 16.8416 0.5 37 0.5C57.1584 0.5 73.5 16.8416 73.5 37Z" fill="#CCCCCC" stroke="#C0C0C0"/>
<path d="M62.6895 42.6389C62.5316 42.3691 62.2685 42.1795 61.9527 42.1066C61.1632 41.9169 60.0579 42.3472 52.509 46.8615C54.1105 45.7967 55.6143 44.7903 56.8775 43.9006C58.2985 42.9088 59.3286 42.143 60.0278 41.5596C60.7496 40.9543 61.8474 40.05 61.2534 39.0509C61.088 38.7664 60.8098 38.5695 60.479 38.4893C59.5466 38.2705 57.712 39.1311 50.5316 43.5068C51.2985 42.9817 52.0203 42.4858 52.682 42.0263C56.4489 39.3863 57.3737 38.5112 56.7346 37.4392C56.5692 37.1547 56.2835 36.9578 55.9526 36.8776C55.4639 36.7609 54.7196 36.9287 53.1481 37.709C54.0654 37.0818 54.8023 36.5567 55.3587 36.1192C56.276 35.4045 57.5316 34.4199 56.885 33.3406C56.712 33.0489 56.4263 32.8447 56.0805 32.7645C55.276 32.5749 53.8173 33.1364 49.5842 35.616C51.3812 34.4637 53.0579 33.3771 54.509 32.3998C56.4338 31.109 57.8248 30.1172 58.7647 29.366C59.7121 28.6076 61.0128 27.5647 60.3662 26.4781C60.1933 26.1936 59.9151 25.9894 59.5767 25.9092C58.7271 25.705 57.0128 26.4051 51.8248 29.4171C52.5241 28.9212 53.0955 28.4909 53.5617 28.1189C54.479 27.3824 55.3737 25.9603 54.7346 24.8882C54.5617 24.5965 54.2759 24.3923 53.9301 24.3121C53.2684 24.1589 52.1707 24.4944 49.5316 25.9457C49.9602 25.6831 50.3962 25.3987 50.8549 25.0924C52.8549 23.7506 54.306 22.715 55.2835 21.9273C56.2609 21.147 59.0504 18.755 58.3887 17.6465C58.2233 17.3693 57.9527 17.1724 57.6218 17.0922C56.8098 16.8953 55.0805 17.5954 49.6143 20.7386C50.4338 20.1844 51.1105 19.703 51.6519 19.2874C52.6895 18.4924 54.1105 17.4058 53.4338 16.2681C53.2684 15.9837 52.9827 15.7868 52.6444 15.7066C51.6895 15.4805 49.8398 16.3265 42.9075 20.5198C44.8173 19.0904 45.2458 18.4122 44.7571 17.5808C44.5917 17.3037 44.3135 17.1068 43.9827 17.0266C43.0955 16.8151 41.4789 17.5371 35.1105 21.3877C36.3436 20.5709 37.494 19.7906 38.509 19.0904C39.9827 18.0695 41.0428 17.2818 41.7646 16.6911C42.509 16.0785 43.6293 15.1523 43.0278 14.1459C42.8624 13.8688 42.5917 13.6792 42.2684 13.599C41.306 13.3729 39.712 14.2261 30.9375 19.6812C30.1706 20.1552 29.3511 20.6657 28.5165 21.1835C29.4413 20.4104 30.321 19.6666 31.0203 19.0394C32.5466 17.6829 33.3887 16.9391 32.8398 16.0056C32.6894 15.7503 32.4188 15.5607 32.1255 15.4878C31.4864 15.3347 31.2308 15.4222 26.6969 18.2153C25.2232 19.1196 23.2383 20.3448 22.6067 20.6292C22.4488 20.6438 22.2834 20.6876 22.1405 20.7678C21.6142 21.0595 21.4338 21.7159 21.7345 22.2264C21.8849 22.4816 22.1556 22.6712 22.4488 22.7441C22.727 22.8098 22.9375 22.8317 23.4714 22.591C22.8774 23.0942 22.3285 23.5682 21.8548 23.9839C20.3285 25.3404 19.4789 26.0843 20.0353 27.0177C20.2007 27.2949 20.4714 27.4845 20.7947 27.5647C21.0804 27.6303 21.4262 27.6012 21.9977 27.3897C20.2608 28.5346 18.6368 29.6213 17.2683 30.5693C15.7946 31.5903 14.7345 32.3779 14.0127 32.9687C13.2683 33.5813 12.148 34.5074 12.7495 35.5139C12.9149 35.791 13.1931 35.9879 13.524 36.0681C14.2984 36.2504 15.6292 35.7253 20.2007 33.0197C18.4789 34.3324 18.1029 34.9961 18.5766 35.791C18.742 36.0754 19.0277 36.2723 19.3661 36.3525C19.524 36.389 19.7044 36.3963 19.9225 36.3671C18.6744 37.1402 17.4713 37.833 16.4337 38.555C14.4789 39.9041 14.1029 40.2396 13.0578 41.0418C12.0202 41.8367 10.5991 42.9233 11.2758 44.061C11.4413 44.3382 11.7119 44.5351 12.0428 44.6153C13.1104 44.8778 15.1104 44.4038 25.5691 38.3216C24.9526 38.73 24.3586 39.1238 23.7947 39.503C21.7947 40.8449 20.3435 41.8805 19.3661 42.6681C18.3886 43.4484 17.0578 44.5205 17.7119 45.6217C17.8849 45.9134 18.1706 46.1176 18.5165 46.1978C19.0277 46.3218 19.9826 46.3145 21.7044 45.7019C20.5465 46.5041 19.6518 47.1605 18.9901 47.6855C18.0728 48.4221 16.8172 49.4285 17.4563 50.5006C17.6292 50.785 17.9074 50.9892 18.2458 51.0694C18.9977 51.2517 20.4262 50.7267 24.336 48.5096C23.6668 48.9837 23.1105 49.3994 22.6668 49.764C21.7195 50.5225 20.6067 52.1998 21.2533 53.2937C21.4262 53.5854 21.712 53.7896 22.0578 53.8699C22.4714 53.9647 23.0503 53.8699 24.0804 53.425C23.0202 54.1397 22.1856 54.7377 21.5691 55.219C20.6518 55.9337 19.3962 56.9182 20.0428 57.9976C20.2082 58.282 20.4939 58.4789 20.8247 58.5591C21.8623 58.8071 24.0202 57.7642 32.6969 52.4842C29.7345 54.6648 29.0127 55.8097 29.5992 56.787C29.7646 57.0714 30.0428 57.2683 30.3736 57.3485C31.2909 57.5673 33.0578 56.7432 39.8398 52.6228C38.5541 53.4833 37.3586 54.2928 36.3135 55.0148C34.8924 56.0066 33.8624 56.7724 33.1631 57.3558C32.4413 57.9611 31.3436 58.8654 31.9375 59.8645C32.0954 60.1344 32.3586 60.324 32.6744 60.3969C32.7646 60.4188 32.8624 60.4334 32.9751 60.4334C34.0127 60.4334 36.2834 59.2009 47.9075 52.156C49.118 51.4195 50.3887 50.6537 51.6594 49.888C49.8774 51.208 48.1256 52.5134 46.7947 53.5636C44.2985 55.5253 43.4714 56.3057 44.0579 57.2829C44.2158 57.5454 44.4789 57.735 44.7797 57.808C45.4263 57.9611 45.8549 57.7496 49.3586 55.5472C50.4338 54.869 52.0203 53.8771 52.5767 53.6146C52.7421 53.6073 52.9075 53.5563 53.0579 53.476C53.5842 53.1843 53.7647 52.528 53.4639 52.0175C53.3587 51.8352 53.1932 51.6893 53.0053 51.5945C53.3662 51.3247 53.7196 51.0694 54.0579 50.8142C56.1857 49.2389 58.3812 47.6199 59.9827 46.3583C62.479 44.3965 63.3061 43.6162 62.7196 42.6389H62.6895ZM48.2233 32.7134C47.7421 33.2968 47.2759 33.8146 46.8323 34.2741L46.6594 34.4783C45.4564 35.7764 44.2458 37.0599 43.0203 38.3143C42.712 38.6133 42.4113 38.7592 42.103 38.7592C41.6067 38.7592 41.1105 38.4018 40.5992 37.6798C40.0955 36.9578 39.8398 36.3161 39.8398 35.7472C39.8398 35.2878 39.9902 34.8575 40.2985 34.4491C41.0504 33.4937 41.8549 32.5676 42.697 31.6778L43.8624 30.4453C44.3586 29.8765 44.8022 29.2566 45.2007 28.593C45.0353 28.4107 44.8925 28.3086 44.7797 28.2867C44.6143 28.2867 44.5015 28.3013 44.4413 28.3231C44.3812 28.345 44.3286 28.3596 44.2834 28.3596C39.697 29.5702 35.7421 31.656 32.4263 34.6241C31.8849 35.1055 31.4864 35.7108 31.2233 36.44C31.1781 36.5786 31.1556 36.7026 31.1556 36.8193C31.1556 36.936 31.1932 37.0672 31.2759 37.2131C31.3586 37.3589 32.0127 37.5267 33.2383 37.709C35.9225 38.1393 38.494 38.7956 40.9676 39.6635C42.5466 40.2542 43.8624 41.2606 44.9225 42.6754C45.5316 43.4484 45.8398 44.1558 45.8398 44.7976C45.8398 45.3664 45.5917 45.8842 45.0955 46.3364C43.2383 47.8679 40.9977 48.8232 38.3887 49.2097C37.5917 49.3483 36.7797 49.4139 35.9526 49.4139C34.4939 49.4139 32.9751 49.1952 31.3962 48.7649C29.727 48.2836 28.3586 47.3063 27.2984 45.8186C27.0879 45.4977 26.9075 45.1914 26.7721 44.8924V44.8559C26.6819 44.6299 26.6293 44.3892 26.6293 44.134C26.6293 43.9516 26.6969 43.8277 26.8398 43.7547C26.9826 43.6891 27.0954 43.6526 27.1932 43.6526C27.4488 43.6526 27.742 43.7912 28.0578 44.061C28.3736 44.3382 28.6969 44.5132 29.0278 44.5934C29.3586 44.6736 29.8248 44.7101 30.4413 44.7101C33.5466 44.7101 36.4413 44.2215 39.1255 43.2369C39.1932 43.2151 39.2458 43.1786 39.2834 43.1348C39.321 43.0911 39.3586 43.0546 39.4037 43.0327L39.3361 42.7921L34.6067 42.143C34.2759 42.0555 33.8774 41.9826 33.4037 41.9388C30.5766 41.3919 28.5917 39.6708 27.4413 36.7682C26.8999 35.5139 26.6293 34.3835 26.6293 33.3771C26.6293 31.6851 27.3586 30.3214 28.8172 29.2712C32.6744 26.4635 37.1481 24.5892 42.2308 23.6557C42.6744 23.5901 43.1481 23.5536 43.6443 23.5536C44.8474 23.5536 45.8624 23.8016 46.697 24.2902C47.5316 24.7788 48.3286 25.5956 49.0804 26.7406C49.1481 26.8354 49.2008 26.9448 49.2233 27.0834C49.3135 27.2876 49.4263 27.4845 49.5391 27.6668C49.6594 27.8491 49.7571 28.0314 49.8398 28.2138C49.9226 28.3961 49.9602 28.6149 49.9602 28.8628C49.9602 29.5483 49.7872 30.212 49.4489 30.8683C49.1105 31.5174 48.697 32.1373 48.2158 32.7134H48.2233Z" fill="white"/>
</svg>
