<svg width="24" height="24" viewBox="0 0 24 24" fill="none" xmlns="http://www.w3.org/2000/svg">
<path d="M13.1337 13.1337C13.7595 13.4326 14.4602 13.6 15.2 13.6C17.851 13.6 20 11.451 20 8.8C20 6.14903 17.851 4 15.2 4C12.549 4 10.4 6.14903 10.4 8.8C10.4 9.53977 10.5674 10.2405 10.8663 10.8663M13.6 15.2C13.6 17.851 11.451 20 8.8 20C6.14903 20 4 17.851 4 15.2C4 12.549 6.14903 10.4 8.8 10.4C11.451 10.4 13.6 12.549 13.6 15.2Z" stroke="#21F650" stroke-width="2" stroke-linecap="round" stroke-linejoin="round"/>
<path d="M6 6L8 4M8 4L6 2M8 4H6C3.79086 4 2 5.79086 2 8M18 18L16 20M16 20L18 22M16 20H18C20.2091 20 22 18.2091 22 16" stroke="#21F650" stroke-width="2" stroke-linecap="round" stroke-linejoin="round"/>
</svg>
