<svg width="24" height="24" viewBox="0 0 24 24" fill="none" xmlns="http://www.w3.org/2000/svg">
<path d="M20.7903 12.5149C20.7277 17.4317 16.6982 21.576 11.7919 21.7743C10.2155 21.837 8.71232 21.5134 7.38655 20.887C6.80196 20.6156 4.31746 21.6386 3.2318 21.9831C2.97082 22.0666 2.73072 21.8265 2.80379 21.5656C3.09609 20.5216 3.8999 18.0998 3.55541 17.5674C2.35491 15.7614 1.77032 13.5066 2.0835 11.116C2.61589 7.08653 5.79981 3.78778 9.80842 3.13012C15.7483 2.15928 20.8739 6.75248 20.7903 12.5253V12.5149Z" stroke="#21F650" stroke-width="2" stroke-miterlimit="10"/>
<path d="M7.96875 13.6016C8.63753 13.6016 9.17968 13.0594 9.17968 12.3906C9.17968 11.7218 8.63753 11.1797 7.96875 11.1797C7.29997 11.1797 6.75781 11.7218 6.75781 12.3906C6.75781 13.0594 7.29997 13.6016 7.96875 13.6016Z" fill="#21F650"/>
<path d="M11.3906 13.6016C12.0594 13.6016 12.6016 13.0594 12.6016 12.3906C12.6016 11.7218 12.0594 11.1797 11.3906 11.1797C10.7218 11.1797 10.1797 11.7218 10.1797 12.3906C10.1797 13.0594 10.7218 13.6016 11.3906 13.6016Z" fill="#21F650"/>
<path d="M14.8203 13.6016C15.4891 13.6016 16.0312 13.0594 16.0312 12.3906C16.0312 11.7218 15.4891 11.1797 14.8203 11.1797C14.1515 11.1797 13.6094 11.7218 13.6094 12.3906C13.6094 13.0594 14.1515 13.6016 14.8203 13.6016Z" fill="#21F650"/>
</svg>
