<svg width="24" height="24" viewBox="0 0 24 24" fill="none" xmlns="http://www.w3.org/2000/svg">
<path d="M14.1429 3.3924C13.3311 3.13745 12.4673 3 11.5714 3C6.83756 3 3 6.83756 3 11.5714C3 16.3053 6.83756 20.1429 11.5714 20.1429C16.3053 20.1429 20.1429 16.3053 20.1429 11.5714C20.1429 10.1011 19.7727 8.71733 19.1204 7.5081M15.8571 6.21429H15.8614M10.2858 20.0471L10.2859 18.1585C10.2859 18.0562 10.3225 17.9573 10.389 17.8796L12.5197 15.3938C12.6948 15.1895 12.6405 14.8763 12.4069 14.7428L9.95874 13.3438C9.89223 13.3058 9.83711 13.2506 9.79915 13.1841L8.20325 10.3874C8.12019 10.2418 7.95992 10.1581 7.793 10.1729L3.05501 10.5949M19.2857 6.42857C19.2857 8.32212 17.5714 9.85714 15.8571 11.5714C14.1429 9.85714 12.4286 8.32212 12.4286 6.42857C12.4286 4.53502 13.9636 3 15.8571 3C17.7507 3 19.2857 4.53502 19.2857 6.42857ZM16.0714 6.21429C16.0714 6.33263 15.9755 6.42857 15.8571 6.42857C15.7388 6.42857 15.6429 6.33263 15.6429 6.21429C15.6429 6.09594 15.7388 6 15.8571 6C15.9755 6 16.0714 6.09594 16.0714 6.21429Z" stroke="#21F650" stroke-width="2" stroke-linecap="round" stroke-linejoin="round"/>
</svg>
