<svg width="24" height="24" viewBox="0 0 24 24" fill="none" xmlns="http://www.w3.org/2000/svg">
<path d="M10.8571 4.85714H8.11429C6.67415 4.85714 5.95408 4.85714 5.40402 5.13741C4.92018 5.38394 4.5268 5.77732 4.28027 6.26117C4 6.81123 4 7.53129 4 8.97143V15.3143C4 16.7544 4 17.4745 4.28027 18.0245C4.5268 18.5084 4.92018 18.9018 5.40402 19.1483C5.95408 19.4286 6.67415 19.4286 8.11429 19.4286H14.4571C15.8973 19.4286 16.6173 19.4286 17.1674 19.1483C17.6512 18.9018 18.0446 18.5084 18.2912 18.0245C18.5714 17.4745 18.5714 16.7544 18.5714 15.3143V12.5714M18.6754 4.75315C19.6796 5.75736 19.6796 7.3855 18.6754 8.3897C17.6712 9.39391 16.0431 9.39391 15.0389 8.3897C14.0347 7.3855 14.0347 5.75736 15.0389 4.75315C16.0431 3.74895 17.6712 3.74895 18.6754 4.75315Z" stroke="#21F650" stroke-width="2" stroke-linecap="round" stroke-linejoin="round"/>
</svg>
