<svg width="24" height="24" viewBox="0 0 24 24" fill="none" xmlns="http://www.w3.org/2000/svg">
<path d="M13.75 3.24258V6.96007C13.75 7.46411 13.75 7.71613 13.8454 7.90866C13.9293 8.078 14.0631 8.21568 14.2278 8.30197C14.4149 8.40006 14.66 8.40006 15.15 8.40006H18.7642M8.5 14.7V17.4M15.5 12.9V17.4M12 10.65V17.4M19 10.1894V16.68C19 18.1921 19 18.9482 18.7139 19.5258C18.4622 20.0338 18.0607 20.4469 17.5667 20.7057C17.0052 21 16.2701 21 14.8 21H9.2C7.72986 21 6.99479 21 6.43327 20.7057C5.93935 20.4469 5.53778 20.0338 5.28611 19.5258C5 18.9482 5 18.1921 5 16.68V7.32C5 5.80786 5 5.05179 5.28611 4.47423C5.53778 3.96619 5.93935 3.55314 6.43327 3.29428C6.99479 3 7.72986 3 9.2 3H12.0103C12.6524 3 12.9734 3 13.2755 3.0746C13.5433 3.14074 13.7994 3.24983 14.0342 3.39787C14.2992 3.56484 14.5262 3.79833 14.9802 4.2653L17.7698 7.1347C18.2238 7.60167 18.4508 7.83516 18.6132 8.10763C18.7571 8.34921 18.8632 8.61258 18.9275 8.88807C19 9.19881 19 9.52901 19 10.1894Z" stroke="#21F650" stroke-width="2" stroke-linecap="round" stroke-linejoin="round"/>
</svg>
