<svg width="24" height="24" viewBox="0 0 24 24" fill="none" xmlns="http://www.w3.org/2000/svg">
<path d="M11.7143 13.4286V10.4286M11.7143 7.42857H11.7229M9.91429 17.8857L11.1657 19.5543C11.3518 19.8024 11.4449 19.9265 11.5589 19.9709C11.6589 20.0097 11.7697 20.0097 11.8696 19.9709C11.9837 19.9265 12.0768 19.8024 12.2629 19.5543L13.5143 17.8857C13.7656 17.5507 13.8912 17.3832 14.0444 17.2553C14.2488 17.0848 14.49 16.9641 14.749 16.903C14.9433 16.8571 15.1526 16.8571 15.5714 16.8571C16.7696 16.8571 17.3686 16.8571 17.8412 16.6614C18.4713 16.4004 18.9718 15.8998 19.2328 15.2698C19.4286 14.7972 19.4286 14.1981 19.4286 13V8.11429C19.4286 6.67415 19.4286 5.95408 19.1483 5.40402C18.9018 4.92018 18.5084 4.5268 18.0245 4.28027C17.4745 4 16.7544 4 15.3143 4H8.11429C6.67415 4 5.95408 4 5.40402 4.28027C4.92018 4.5268 4.5268 4.92018 4.28027 5.40402C4 5.95408 4 6.67415 4 8.11429V13C4 14.1981 4 14.7972 4.19574 15.2698C4.45672 15.8998 4.95731 16.4004 5.58739 16.6614C6.05994 16.8571 6.65901 16.8571 7.85714 16.8571C8.27592 16.8571 8.48532 16.8571 8.67958 16.903C8.93859 16.9641 9.17981 17.0848 9.38414 17.2553C9.53738 17.3832 9.66302 17.5507 9.91429 17.8857Z" stroke="#21F650" stroke-width="2" stroke-linecap="round" stroke-linejoin="round"/>
</svg>
