<svg width="32" height="32" viewBox="0 0 32 32" fill="none" xmlns="http://www.w3.org/2000/svg">
<rect width="32" height="32" rx="12" fill="black"/>
<path d="M17.5714 14.7143H12.4286M14.1429 18.1429H12.4286M19.2857 11.2857H12.4286M22.7143 14.2857V11.1143C22.7143 9.67415 22.7143 8.95408 22.434 8.40402C22.1875 7.92018 21.7941 7.5268 21.3103 7.28027C20.7602 7 20.0401 7 18.6 7H13.1143C11.6742 7 10.9541 7 10.404 7.28027C9.92018 7.5268 9.5268 7.92018 9.28027 8.40402C9 8.95408 9 9.67415 9 11.1143V20.0286C9 21.4687 9 22.1888 9.28027 22.7388C9.5268 23.2227 9.92018 23.6161 10.404 23.8626C10.9541 24.1429 11.6742 24.1429 13.1143 24.1429H15.4286M24.4286 24.1429L23.1429 22.8571M24 20.7143C24 22.3711 22.6569 23.7143 21 23.7143C19.3431 23.7143 18 22.3711 18 20.7143C18 19.0574 19.3431 17.7143 21 17.7143C22.6569 17.7143 24 19.0574 24 20.7143Z" stroke="#21F650" stroke-width="2" stroke-linecap="round" stroke-linejoin="round"/>
<rect width="32" height="32" rx="12" fill="black"/>
<path d="M17.5 14.65H12.4M14.1 18.05H12.4M19.2 11.25H12.4M22.6 14.225V11.08C22.6 9.65187 22.6 8.9378 22.3221 8.39232C22.0776 7.91251 21.6875 7.52241 21.2077 7.27793C20.6622 7 19.9481 7 18.52 7H13.08C11.6519 7 10.9378 7 10.3923 7.27793C9.91251 7.52241 9.52241 7.91251 9.27793 8.39232C9 8.9378 9 9.65187 9 11.08V19.92C9 21.3481 9 22.0622 9.27793 22.6077C9.52241 23.0875 9.91251 23.4776 10.3923 23.7221C10.9378 24 11.6519 24 13.08 24H15.375M24.3 24L23.025 22.725M23.875 20.6C23.875 22.243 22.543 23.575 20.9 23.575C19.257 23.575 17.925 22.243 17.925 20.6C17.925 18.957 19.257 17.625 20.9 17.625C22.543 17.625 23.875 18.957 23.875 20.6Z" stroke="#21F650" stroke-width="2" stroke-linecap="round" stroke-linejoin="round"/>
<path d="M19 29H30.3097" stroke="#FEBD17" stroke-width="2" stroke-linecap="round" stroke-linejoin="round"/>
<path d="M28.4805 22.5859L24.5656 26.5009L20.6562 22.5859" stroke="#FEBD17" stroke-width="2" stroke-linecap="round" stroke-linejoin="round"/>
<path d="M24.5625 25.041V16" stroke="#FEBD17" stroke-width="2" stroke-linecap="round" stroke-linejoin="round"/>
</svg>
